# xmcd
#
# Track frame offsets: 
#        150
#        11567
#        27281
#        39126
#        52524
#        75890
#        85322
#        103552
#        113456
#        129806
#        145446
#        155546
#        169206
#        184368
#        197884
#        217184
#        231903
#        251786
#        266857
#
# Disc length: 3815 seconds
#
# Revision: 0
# Processed by: cddbd v1.5.2PL0 Copyright (c) Steve Scherf et al.
# Submitted via: ExactAudioCopy v0.99pb5
#
DISCID=fa0ee513
DTITLE=Southern Rail - The Early Years - 1987-1989
DYEAR=2007
DGENRE=Bluegrass
TTITLE0=Virginia (Is A Pleasant State Of Mind)
TTITLE1=Forty Days, Forty Nights
TTITLE2=Captured Moments
TTITLE3=The Mad Russian
TTITLE4=California Earthquake
TTITLE5=Looking For The Lighthouse
TTITLE6=Green Pastures
TTITLE7=Don't Come Crawling
TTITLE8=A Guitarist's Lament
TTITLE9=Just A Little Man
TTITLE10=Take Me Back
TTITLE11=Dust On The Banjo
TTITLE12=Sidetracked
TTITLE13=Oh Judge Ye Not
TTITLE14=Love Is A Treasure
TTITLE15=Gettysburg Rain
TTITLE16=Angel Band
TTITLE17=Do You Know
TTITLE18=Home
EXTD=
EXTT0=
EXTT1=
EXTT2=
EXTT3=
EXTT4=
EXTT5=
EXTT6=
EXTT7=
EXTT8=
EXTT9=
EXTT10=
EXTT11=
EXTT12=
EXTT13=
EXTT14=
EXTT15=
EXTT16=
EXTT17=
EXTT18=
PLAYORDER=
